# xmcd CD database file
#
# Track frame offsets:
#	150
#	16331
#	29641
#	45411
#	50353
#	64104
#	69240
#
# Disc length: 1257 seconds
#
# Revision: 0
# Processed by: cddbd v1.5.2PL0 Copyright (c) Steve Scherf et al.
# Submitted via: CDex 1.51
#
DISCID=5504e707
DTITLE=Bonne Ville - Blue Jazz - Not For Sale
DYEAR=2007
DGENRE=Jazz
TTITLE0=The Beginner
TTITLE1=Tribute to Rory
TTITLE2=Lido
TTITLE3=Devil is gone
TTITLE4=Matea
TTITLE5=Roadrunner Blues
TTITLE6=A-Blues
EXTD=YEAR: 2007
EXTT0=
EXTT1=
EXTT2=
EXTT3=
EXTT4=
EXTT5=
EXTT6=
PLAYORDER=
